<svg width="25" height="23" viewBox="0 0 25 23" fill="none" xmlns="http://www.w3.org/2000/svg">
    <g clip-path="url(#clip0_3211_19352)">
        <path d="M12.3969 16.1521C13.9512 16.1521 15.2716 17.1131 15.7549 18.4514L15.8134 18.4423L15.9516 18.4339H23.0593C23.714 18.4339 24.2439 18.9445 24.2439 19.5752C24.2439 20.1603 23.7866 20.6427 23.1975 20.7082L23.0593 20.7165H15.9516C15.8852 20.7165 15.8189 20.7112 15.7557 20.7006C15.2724 22.0382 13.9519 22.9992 12.3977 22.9992C10.8435 22.9992 9.52306 22.0382 9.03974 20.6998L8.98129 20.7089L8.84309 20.7173H1.7354C1.0807 20.7173 0.550781 20.2068 0.550781 19.576C0.550781 18.9909 1.00804 18.5085 1.59719 18.4431L1.7354 18.4347H8.84309C8.90943 18.4347 8.97577 18.44 9.03895 18.4507C9.52227 17.1131 10.8427 16.1521 12.3969 16.1521ZM12.3969 18.4347C11.7422 18.4347 11.2123 18.9452 11.2123 19.576C11.2123 20.2068 11.7422 20.7173 12.3969 20.7173C13.0516 20.7173 13.5816 20.2068 13.5816 19.576C13.5816 18.9452 13.0516 18.4347 12.3969 18.4347ZM4.10463 8.16296C5.65884 8.16296 6.97929 9.12394 7.46262 10.4623L7.52106 10.4532L7.65926 10.4448H23.0593C23.714 10.4448 24.2439 10.9553 24.2439 11.5861C24.2439 12.1712 23.7866 12.6536 23.1975 12.719L23.0593 12.7274H7.65847C7.59214 12.7274 7.5258 12.7221 7.46262 12.7114C6.97929 14.049 5.65884 15.01 4.10463 15.01C2.14132 15.0108 0.550781 13.4776 0.550781 11.5869C0.550781 9.69611 2.14132 8.16296 4.10463 8.16296ZM4.10463 10.4456C3.44993 10.4456 2.92001 10.9561 2.92001 11.5869C2.92001 12.2176 3.44993 12.7282 4.10463 12.7282C4.75933 12.7282 5.28924 12.2176 5.28924 11.5869C5.28924 10.9561 4.75933 10.4456 4.10463 10.4456ZM17.1354 0.173828C18.6896 0.173828 20.0101 1.13481 20.4934 2.47318L20.5518 2.46405L20.69 2.45568H23.0593C23.714 2.45568 24.2439 2.96622 24.2439 3.59698C24.2439 4.18209 23.7866 4.66448 23.1975 4.72991L23.0593 4.73828H20.69C20.6237 4.73828 20.5574 4.73296 20.4942 4.72231C20.0109 6.05991 18.6904 7.02089 17.1362 7.02089C15.582 7.02089 14.2615 6.05991 13.7782 4.72155L13.7198 4.73068L13.5816 4.73905H1.7354C1.0807 4.73905 0.550781 4.22774 0.550781 3.59774C0.550781 3.01263 1.00804 2.53024 1.59719 2.46405L1.7354 2.45568H13.5816C13.6479 2.45568 13.7142 2.461 13.7774 2.47165C14.2607 1.13481 15.5812 0.173828 17.1354 0.173828ZM17.1354 2.45644C16.4807 2.45644 15.9508 2.96698 15.9508 3.59774C15.9508 4.2285 16.4807 4.73905 17.1354 4.73905C17.7901 4.73905 18.32 4.2285 18.32 3.59774C18.32 2.96698 17.7901 2.45644 17.1354 2.45644Z"
              fill="white"/>
    </g>
    <defs>
        <clipPath id="clip0_3211_19352">
            <rect width="23.6923" height="22.8261" fill="white" transform="translate(0.550781 0.173828)"/>
        </clipPath>
    </defs>
</svg>